<?xml version="1.0" encoding="UTF-8"?>
<svg width="20px" height="20px" viewBox="0 0 20 20" version="1.1" xmlns="http://www.w3.org/2000/svg" xmlns:xlink="http://www.w3.org/1999/xlink">
    <title>customer-int-icon</title>
    <g id="Solution-for-Helpdesk" stroke="none" stroke-width="1" fill="none" fill-rule="evenodd">
        <g id="Help-Desk-_Solutions" transform="translate(-1262.000000, -566.000000)">
            <g id="customer-int-icon" transform="translate(1262.000000, 566.000000)">
                <polygon id="Path" points="0 0 20 0 20 20 0 20"></polygon>
                <path d="M17,3 C17.5522847,3 18,3.44771525 18,4 L18,12 C18,12.5522847 17.5522847,13 17,13 L12,13 L12,15 L14,15 L14,16 L7,16 L7,15 L9,15 L9,13 L4,13 C3.44771525,13 3,12.5522847 3,12 L3,4 C3,3.44771525 3.44771525,3 4,3 L17,3 Z M14.1609176,5.71515409 C13.7777252,5.31743306 13.1446698,5.30565529 12.7469487,5.6888477 L12.7469487,5.6888477 L9.953,8.38 L9.18196344,7.73360614 L9.08082364,7.65899979 C8.66329397,7.38955304 8.10068018,7.46692045 7.77319862,7.85762904 C7.41842693,8.28089668 7.47395387,8.91162217 7.89722151,9.26639386 L7.89722151,9.26639386 L10.0465194,11.0678782 L14.1346112,7.12912296 L14.2195378,7.03647935 C14.5318071,6.64992991 14.5146337,6.08228119 14.1609176,5.71515409 Z" id="Combined-Shape" fill="#08C6CB"></path>
            </g>
        </g>
    </g>
</svg>