<svg xmlns="http://www.w3.org/2000/svg" xmlns:xlink="http://www.w3.org/1999/xlink" width="1600" height="853" viewBox="0 0 1600 853">
    <defs>
        <linearGradient id="prefix__b" x1="50%" x2="50%" y1="122.419%" y2="0%">
            <stop offset="0%" stop-color="#161923"/>
            <stop offset="100%" stop-color="#050608"/>
        </linearGradient>
        <path id="prefix__a" d="M0 0L1600 0 1600 853 0 853z"/>
    </defs>
    <g fill="none" fill-rule="evenodd">
        <mask id="prefix__c" fill="#fff">
            <use xlink:href="#prefix__a"/>
        </mask>
        <use fill="url(#prefix__b)" xlink:href="#prefix__a"/>
        <g fill-rule="nonzero" stroke-width="1.566" mask="url(#prefix__c)" opacity=".65">
            <g>
                <path fill="#282C39" stroke="#282C39" d="M1671 869.217L1859 908 1850.51 645zM1850 643.62L1520 349 1670.441 867z" transform="translate(-604 -334)"/>
                <path fill="#252934" stroke="#252934" d="M1855.443 908L2315 659.544 1847 645z" transform="translate(-604 -334)"/>
                <path fill="#262A37" stroke="#262A37" d="M1852 644L1666.375 20 1522 349.501z" transform="translate(-604 -334)"/>
                <path fill="#1F222B" stroke="#1F222B" d="M1680 1725L2085 1475.599 1855.299 909z" transform="translate(-604 -334)"/>
                <path fill="#292D3A" stroke="#292D3A" d="M1519.572 349L1193 867 1669 867z" transform="translate(-604 -334)"/>
                <path fill="#232731" stroke="#232731" d="M1855 909L2410 841.254 2316.692 661z" transform="translate(-604 -334)"/>
                <path fill="#222530" stroke="#222530" d="M2315 659L2289.67 319 1847 644.532z" transform="translate(-604 -334)"/>
                <path fill="#272B37" stroke="#272B37" d="M1519 349L1212.247 356.245 1193 867z" transform="translate(-604 -334)"/>
                <path fill="#262936" stroke="#262936" d="M1662 20L1211 358 1518.5 350.731z" transform="translate(-604 -334)"/>
                <path fill="#20232C" stroke="#20232C" d="M1855 908.667L2351.834 1305 2410 841z" transform="translate(-604 -334)"/>
                <path fill="#242732" stroke="#242732" d="M1683.129 1722L1859 906.708 1671 868z" transform="translate(-604 -334)"/>
                <path fill="#242631" stroke="#242631" d="M2294 318.12L1665 20 1850.071 644z" transform="translate(-604 -334)"/>
                <path fill="#1F212A" stroke="#1F212A" d="M2085.317 1473L2352 1304.282 1855 909z" transform="translate(-604 -334)"/>
                <path fill="#252934" stroke="#252934" d="M1193 868L1682 1722 1669.926 868z" transform="translate(-604 -334)"/>
                <path fill="#20232D" stroke="#20232D" d="M1191.366 868L938 1562.329 1680 1722z" transform="translate(-604 -334)"/>
                <path fill="#272A37" stroke="#272A37" d="M769 448L870.52 1090 1192 868.746z" transform="translate(-604 -334)"/>
                <path fill="#242834" stroke="#242834" d="M1664 20L1004 68.459 1211.912 358z" transform="translate(-604 -334)"/>
                <path fill="#252935" stroke="#252935" d="M1212 357L769 447.603 1192.634 868z" transform="translate(-604 -334)"/>
                <path fill="#242732" stroke="#242732" d="M1003.814 69L769 449 1212 358.236z" transform="translate(-604 -334)"/>
                <path fill="#22252F" stroke="#22252F" d="M870 1089.62L937.579 1561 1191 869z" transform="translate(-604 -334)"/>
                <path fill="#1D2029" stroke="#1D2029" d="M804 1589L939 1562.472 870.892 1091z" transform="translate(-604 -334)"/>
                <path fill="#21242E" stroke="#21242E" d="M448 820L807.438 1587 874 1088.932z" transform="translate(-604 -334)"/>
                <path fill="#282C38" stroke="#282C38" d="M105 600.591L446.476 821 771 448z" transform="translate(-604 -334)"/>
                <path fill="#272A37" stroke="#272A37" d="M772.341 448L448 820.384 874 1090z" transform="translate(-604 -334)"/>
                <path fill="#222530" stroke="#222530" d="M1002 68.984L536 0 767.793 449z" transform="translate(-604 -334)"/>
                <path fill="#242733" stroke="#242733" d="M537.09 0L339 124.655 769 449z" transform="translate(-604 -334)"/>
                <path fill="#272A37" stroke="#272A37" d="M339.916 125L105 601 771 448.777z" transform="translate(-604 -334)"/>
                <path fill="#22252F" stroke="#22252F" d="M445.459 820L0 1511.024 804 1587z" transform="translate(-604 -334)"/>
            </g>
        </g>
    </g>
</svg>
