<svg xmlns="http://www.w3.org/2000/svg" width="132" height="28" viewBox="0 0 132 28">
    <g fill="none" fill-rule="nonzero">
        <path fill="#FFC300" d="M12.875 27.934L.07 18.364v-4.781l7.371 1.671 5.438 7.612 5.43-7.612 7.372-1.671h.002v4.78z"/>
        <path fill="#FF8D00" d="M.07 2.453v11.13h.002l12.804-7.245S3.282.722 2.46.391C.92-.24.071-.333.071 2.453z"/>
        <path fill="#FF4F00" d="M23.292.391c-.82.332-10.387 5.93-10.387 5.93L.072 13.583l7.372 1.671 5.43 7.612 5.441-7.612 7.369-1.671V2.453c0-2.786-.85-2.693-2.392-2.062z"/>
        <path fill="#FFF" d="M47.42 12.652v7.181h-2.43v-6.826c0-1.726-.279-3.451-2.482-3.451-2.203 0-3.14 1.903-3.14 4.314v5.963h-2.405V2.323h2.405v7.36h.05c.634-1.193 1.95-2.132 3.698-2.132 3.469 0 4.304 2.233 4.304 5.1zm11.955.177v7.004H57.02l-.026-1.522c-.48.507-1.62 1.801-3.823 1.801-2.228 0-4.153-1.395-4.153-3.73 0-2.36 1.925-3.553 4.71-3.68l3.216-.126v-.483c0-1.827-1.241-2.74-2.988-2.74-1.747 0-3.216.787-3.621 1.04L49.6 8.77c.887-.507 2.507-1.218 4.508-1.218 2 0 3.165.559 3.975 1.37.81.838 1.292 1.853 1.292 3.908zm-2.406 3.807v-2.589l-2.81.178c-1.95.102-2.735.939-2.735 2.08 0 1.143.886 2.082 2.481 2.082 1.57 0 2.608-1.066 3.064-1.751zm17.398-2.842c0 3.578-2.278 6.318-5.849 6.318-1.899 0-3.292-.812-4.153-2.157l-.025-.025v6.623h-2.43V7.78h2.329v1.903h.05c1.064-1.421 2.507-2.132 4.28-2.132 3.545 0 5.798 2.665 5.798 6.243zm-2.481-.026c0-2.41-1.418-4.237-3.824-4.237-2.405 0-3.823 1.827-3.823 4.237 0 2.411 1.418 4.263 3.823 4.263 2.406 0 3.824-1.852 3.824-4.263zm16.892.026c0 3.578-2.279 6.318-5.85 6.318-1.899 0-3.291-.812-4.152-2.157l-.025-.025v6.623H76.32V7.78h2.33v1.903h.05c1.063-1.421 2.507-2.132 4.28-2.132 3.544 0 5.798 2.665 5.798 6.243zm-2.482-.026c0-2.41-1.418-4.237-3.823-4.237-2.406 0-3.824 1.827-3.824 4.237 0 2.411 1.418 4.263 3.824 4.263 2.405 0 3.823-1.852 3.823-4.263zm11.701-6.014l2.507.026-5.798 14.16c-.836 2.08-1.824 2.79-3.166 2.79-1.342 0-2.279-.43-2.279-.43l.482-1.98s.658.279 1.266.279c.506 0 1.038.05 1.57-1.421l.582-1.599L88.35 7.754l2.532.026 3.57 9.363 3.545-9.389zm9.817-5.47l-.148 1.805s-.668-.229-1.335-.229c-1.557 0-1.804 1.196-1.804 2.57v1.347h2.793v1.959h-2.793v10.097h-2.347V6.557c0-1.578.296-2.595.79-3.23.52-.662 1.458-1.323 2.818-1.323 1.359 0 2.026.28 2.026.28zm12.115 11.56c0 3.756-2.785 6.268-6.356 6.268-3.595 0-6.38-2.512-6.38-6.268 0-3.73 2.785-6.293 6.38-6.293 3.57 0 6.356 2.563 6.356 6.293zm-2.456-.076c0-2.36-1.494-4.237-3.9-4.237-2.43 0-3.925 1.877-3.925 4.237 0 2.386 1.494 4.263 3.925 4.263 2.406 0 3.9-1.877 3.9-4.263zm9.7-.279l4.887 6.344h-2.735l-3.57-4.897-3.57 4.897h-2.736l4.888-6.344-4.33-5.71h2.684l3.064 4.34 3.063-4.34h2.71l-4.355 5.71z"/>
    </g>
</svg>